<?xml version="1.0" encoding="UTF-8"?>
<svg version="1.1" xmlns="http://www.w3.org/2000/svg" width="445" height="560">
<path d="M0 0 C0.75990234 -0.01611328 1.51980469 -0.03222656 2.30273438 -0.04882812 C10.91174597 -0.05617997 18.49211936 2.8277471 24.73046875 8.94921875 C27.86319362 12.37958969 29.37874302 14.62273155 30.0625 19.3125 C30.60777344 18.91417969 31.15304688 18.51585938 31.71484375 18.10546875 C41.83792197 10.99335739 50.60266217 8.98832695 63.0625 10.3125 C71.08651071 12.26639871 78.32699714 15.29744276 83.0625 22.3125 C87.71824813 31.20856028 88.20192265 39.92899603 88.34375 49.76953125 C88.36215942 50.75370529 88.38056885 51.73787933 88.39953613 52.75187683 C88.47788379 56.94116857 88.54623956 61.13060574 88.61474609 65.32006836 C88.66635673 68.38663951 88.72361026 71.45306846 88.78125 74.51953125 C88.80161316 75.94758842 88.80161316 75.94758842 88.8223877 77.40449524 C88.84746399 78.72177864 88.84746399 78.72177864 88.87304688 80.06567383 C88.88557495 80.83953934 88.89810303 81.61340485 88.91101074 82.41072083 C88.94989327 84.39960273 88.94989327 84.39960273 90.0625 86.3125 C90.64257812 85.90257812 91.22265625 85.49265625 91.8203125 85.0703125 C92.60148437 84.53148437 93.38265625 83.99265625 94.1875 83.4375 C94.95320313 82.90382813 95.71890625 82.37015625 96.5078125 81.8203125 C104.21487342 77.27149673 113.29900883 76.9940027 121.9140625 78.96484375 C130.83640358 82.18296368 137.27168912 88.17314484 141.77891064 96.46894264 C145.86410929 105.51895272 145.32621071 116.01566408 145.21362305 125.73681641 C145.20477654 127.15185879 145.19684495 128.56690713 145.18974209 129.98195934 C145.16787375 133.82051159 145.13318268 137.65885207 145.09617662 141.49728417 C145.05881597 145.60935848 145.03355949 149.72150943 145.00680542 153.83366394 C144.95317921 161.78578635 144.8885959 169.73778171 144.81995201 177.68978721 C144.7410761 186.86633904 144.67244012 196.04295854 144.60432947 205.21959555 C144.49434019 220.00360861 144.37697355 234.78754898 144.25409949 249.57146013 C144.10760295 267.21154182 143.982473 284.85164172 143.87447494 302.49199796 C143.82175892 311.05663691 143.76202166 319.6212266 143.70098209 328.18581009 C143.65821008 334.20688582 143.6179449 340.22795013 143.58432007 346.24908447 C143.55289448 351.81764675 143.5124576 357.38607351 143.46518326 362.95452309 C143.44978108 364.93996283 143.43741792 366.92542942 143.42867661 368.91090965 C143.3508187 385.95508613 143.04298069 403.52966847 138.5 420.0625 C138.24532959 421.0100415 137.99065918 421.95758301 137.72827148 422.93383789 C132.41918107 441.47582445 122.76252898 456.07268276 105.70703125 465.6328125 C93.88890131 471.28041442 80.30281978 471.47082235 67.44921875 471.4453125 C66.35897903 471.44626923 65.26873932 471.44722595 64.14546204 471.44821167 C61.84526512 471.44888884 59.54506624 471.44706705 57.24487305 471.44287109 C53.79796831 471.43757372 50.35119731 471.44280224 46.90429688 471.44921875 C35.86526648 471.45249662 24.872624 471.29224457 13.84963989 470.68908691 C7.30695319 470.34050275 0.77379646 470.18624494 -5.77734375 470.1015625 C-6.77139725 470.08727203 -7.76545074 470.07298157 -8.78962708 470.05825806 C-12.84449298 470.00095923 -16.89921584 469.94585524 -20.9543457 469.91113281 C-50.12965142 469.64208635 -50.12965142 469.64208635 -63.25 462.5625 C-63.92240723 462.21179443 -64.59481445 461.86108887 -65.28759766 461.49975586 C-70.64291934 458.63319022 -75.39409128 455.35485991 -79.9375 451.3125 C-80.80246094 450.55453125 -81.66742188 449.7965625 -82.55859375 449.015625 C-90.93879009 441.57196729 -90.93879009 441.57196729 -93.9375 438.3125 C-93.9375 437.6525 -93.9375 436.9925 -93.9375 436.3125 C-94.5975 436.3125 -95.2575 436.3125 -95.9375 436.3125 C-97.33623124 434.80826101 -98.65545269 433.22984851 -99.9375 431.625 C-100.741875 430.61824219 -101.54625 429.61148437 -102.375 428.57421875 C-103.22993122 427.48758026 -104.0840923 426.40033542 -104.9375 425.3125 C-105.35128906 424.78865723 -105.76507813 424.26481445 -106.19140625 423.72509766 C-135.50050526 386.54894034 -151.11236583 345.7056142 -162.3125 299.9375 C-162.56346436 298.92163818 -162.81442871 297.90577637 -163.07299805 296.85913086 C-167.13908437 279.76286064 -164.37969107 268.46209637 -156.69909668 252.81640625 C-154.9764128 249.29744973 -153.29959916 245.75688057 -151.625 242.21484375 C-151.29836365 241.52421844 -150.97172729 240.83359314 -150.63519287 240.12203979 C-144.9345957 227.99493421 -140.56175196 216.13528528 -138.73828125 202.828125 C-137.39474005 196.92965144 -134.60244133 192.10833891 -129.69140625 188.37890625 C-122.44447302 183.97264173 -114.58620853 183.28390361 -106.36328125 184.78125 C-99.85461882 186.4557604 -94.69508268 189.55491732 -89.9375 194.3125 C-89.15667407 181.03913975 -88.77613161 167.8044392 -88.70770454 154.5089817 C-88.69092543 151.36699403 -88.66769489 148.22510907 -88.64280701 145.08317566 C-88.57294946 136.1674022 -88.51167252 127.251595 -88.46069336 118.33569336 C-88.42882623 112.8401402 -88.38756836 107.34472237 -88.34049797 101.8492794 C-88.32456987 99.77180083 -88.31220637 97.69429156 -88.30359077 95.61676979 C-88.2913714 92.71808732 -88.26720471 89.81972261 -88.24047852 86.92114258 C-88.23988937 86.07789932 -88.23930023 85.23465607 -88.23869324 84.36585999 C-88.11104567 73.86278005 -85.82696625 64.4817159 -78.375 56.67578125 C-70.26025151 50.18008114 -58.91218405 49.2235101 -48.9375 50.3125 C-43.80236541 51.53436482 -38.67420357 52.94414822 -33.9375 55.3125 C-33.91768066 54.57725098 -33.89786133 53.84200195 -33.87744141 53.08447266 C-33.7812501 49.70183373 -33.67195743 46.31973463 -33.5625 42.9375 C-33.5315625 41.78121094 -33.500625 40.62492187 -33.46875 39.43359375 C-33.10907706 28.82324188 -32.32927744 18.18666542 -25.9375 9.3125 C-18.19805938 2.21582648 -10.29392359 -0.04343428 0 0 Z M-20.9375 17.3125 C-23.97058945 23.58677692 -24.45360819 29.99398646 -24.60522461 36.85717773 C-24.63802238 37.92161071 -24.67082014 38.98604368 -24.70461178 40.0827322 C-25.14919479 56.30983714 -25.1686057 72.54908246 -25.24082303 88.78108144 C-25.2630351 93.56292856 -25.2902476 98.34474748 -25.31687927 103.12657166 C-25.36633912 112.13908716 -25.41144656 121.15161872 -25.45490164 130.16416496 C-25.50467931 140.44268151 -25.55944404 150.72116972 -25.61458123 160.9996587 C-25.72768205 182.10391261 -25.83467108 203.2081937 -25.9375 224.3125 C-30.6875 225.4375 -30.6875 225.4375 -32.9375 224.3125 C-32.93804477 223.51404852 -32.93858953 222.71559704 -32.93915081 221.89295006 C-32.95411937 202.46309449 -32.99656921 183.03347677 -33.06959057 163.60375023 C-33.10424085 154.20764954 -33.12959614 144.81169556 -33.13305664 135.41552734 C-33.13609649 127.22562148 -33.15658962 119.03597691 -33.19802457 110.84617198 C-33.21935453 106.50982324 -33.23195528 102.17384597 -33.22365379 97.83744431 C-33.2161135 93.75458977 -33.23193476 89.67248789 -33.26556015 85.58977127 C-33.27379379 84.09263578 -33.27354281 82.59542545 -33.26409721 81.09829712 C-32.8776352 72.25962621 -32.8776352 72.25962621 -36.32637024 64.4569397 C-43.28981765 58.73807682 -52.2731493 58.68941915 -60.9375 59.3125 C-67.4170625 60.32580318 -71.64718317 62.14521535 -75.78125 67.30078125 C-78.98811123 72.88028643 -79.25572269 78.20910922 -79.31640625 84.46484375 C-79.34135414 85.89584663 -79.34135414 85.89584663 -79.36680603 87.35575867 C-79.42100101 90.65376489 -79.46053033 93.95178662 -79.5 97.25 C-79.53598341 99.66651102 -79.57246309 102.0830147 -79.609375 104.49951172 C-79.87350425 122.80481717 -80.02285722 141.11152737 -80.18359375 159.41796875 C-80.19948642 161.21906884 -80.19948642 161.21906884 -80.21570015 163.05655479 C-80.32335909 175.28712136 -80.42809733 187.51768994 -80.51869965 199.74839592 C-80.75437844 231.34486071 -81.16229256 262.92382212 -82.375 294.5 C-82.40158691 295.26859344 -82.42817383 296.03718689 -82.45556641 296.82907104 C-82.63354965 300.43771291 -82.97075992 303.23100846 -84.9375 306.3125 C-87.25 306.625 -87.25 306.625 -89.9375 306.3125 C-96.81087289 298.38168512 -96.62696241 286.47393573 -96.12353516 276.58105469 C-95.70340157 271.45785087 -94.72127133 266.43997724 -93.69140625 261.41015625 C-91.79022656 251.57671375 -91.72164824 241.70718109 -91.69726562 231.7265625 C-91.68751967 229.31736224 -91.65638766 226.9090027 -91.625 224.5 C-91.07782438 210.98321269 -91.07782438 210.98321269 -96.81665039 199.39306641 C-103.08955535 194.26479431 -109.24631417 192.81887733 -117.24609375 193.00390625 C-121.52884162 193.49496152 -123.56786817 194.57467414 -126.9375 197.3125 C-129.44877742 202.29785073 -130.60427506 207.04844228 -131.625 212.5 C-135.68277621 231.96530274 -145.28915168 249.86171107 -153.75756836 267.71899414 C-164.97955167 292.3850667 -143.32001608 336.42014755 -134.48046875 360.28515625 C-124.73772323 385.90461022 -107.53040596 410.04169339 -88.93359375 430.12109375 C-87.27125038 431.94609303 -85.7633724 433.80423548 -84.25 435.75 C-72.31648085 449.69998638 -55.05467462 458.36919844 -36.9375 460.3125 C-32.89711918 460.56753861 -28.85445166 460.70903978 -24.80859375 460.84765625 C-23.61014832 460.89081467 -22.41170288 460.93397308 -21.17694092 460.97843933 C-17.24315047 461.11676055 -13.30914566 461.247305 -9.375 461.375 C-8.36862677 461.40810524 -8.36862677 461.40810524 -7.34192276 461.44187927 C13.0629366 462.11139199 33.45779255 462.52488931 53.875 462.5625 C54.99077423 462.56758575 56.10654846 462.57267151 57.25613403 462.57791138 C87.92967887 463.20029222 87.92967887 463.20029222 113.8828125 448.6875 C117.14877442 445.12888917 119.72351226 441.53474148 122.0625 437.3125 C122.56394531 436.43851562 123.06539063 435.56453125 123.58203125 434.6640625 C132.47654674 417.50552882 134.12492826 397.17212963 134.35473633 378.16186523 C134.3736688 376.852055 134.39260128 375.54224476 134.41210747 374.1927433 C134.46403451 370.54768252 134.50968992 366.90256793 134.55368018 363.25740361 C134.5823891 360.90426236 134.61258993 358.55114432 134.6431675 356.19802666 C135.17989016 314.62824794 135.42687043 273.05545527 135.63928032 231.48295021 C135.70600217 218.42578662 135.78008731 205.36871379 135.86438721 192.31165129 C135.92424607 182.95556967 135.9762635 173.59946483 136.02231437 164.24330515 C136.04969746 158.71525455 136.08031468 153.18727019 136.11932945 147.65928841 C136.15541237 142.51942893 136.18174814 137.37961092 136.2006073 132.23966026 C136.20914827 130.36514974 136.22116087 128.49065116 136.23699379 126.61618805 C137.11830613 109.51016423 137.11830613 109.51016423 129.8125 94.875 C129.06484375 94.07191406 128.3171875 93.26882812 127.546875 92.44140625 C122.29014588 87.93681919 116.89407796 86.15415217 110.0625 86.3125 C102.97518306 87.44550645 97.82780429 91.05739998 93.0625 96.3125 C92.37613464 97.06677277 91.68976929 97.82104553 90.98260498 98.59817505 C87.6789877 103.67447519 88.49367102 109.92692433 88.51660156 115.75341797 C88.50786009 117.1237556 88.49737231 118.49408303 88.48527527 119.86439514 C88.45746428 123.57268083 88.45400948 127.28063265 88.45499516 130.98900747 C88.4518618 134.86881544 88.42623484 138.74847397 88.40301514 142.62820435 C88.36248383 149.96973259 88.34212122 157.31117208 88.32904124 164.65279496 C88.31316144 173.01319313 88.27474172 181.37344046 88.23444796 189.73375106 C88.15208833 206.92662234 88.09797168 224.11946936 88.0625 241.3125 C86.25 241.9375 86.25 241.9375 84.0625 242.3125 C83.0725 241.6525 82.0825 240.9925 81.0625 240.3125 C80.68053246 237.98675251 80.68053246 237.98675251 80.67050171 235.01325989 C80.65940872 233.88677032 80.64831573 232.76028076 80.6368866 231.59965515 C80.63989273 230.35609756 80.64289886 229.11253998 80.64599609 227.83129883 C80.63741074 226.52459229 80.62882538 225.21788574 80.61997986 223.87158203 C80.5965245 220.26271569 80.59149578 216.65402122 80.58932066 213.04508805 C80.58362637 209.215035 80.56029381 205.3850902 80.53872681 201.55509949 C80.50003433 194.23293255 80.47596565 186.91079649 80.45760214 179.58855313 C80.43489267 170.68594452 80.39839963 161.78340962 80.359375 152.88085938 C80.35593283 152.09346178 80.35249066 151.30606418 80.34894419 150.49480605 C80.32806747 145.74840146 80.30648642 141.00200046 80.28438663 136.25560141 C80.27708382 134.6808226 80.26986585 133.10604341 80.26273251 131.53126383 C80.16887695 110.81657374 80.04631612 90.1029685 79.71947098 69.3904171 C79.68307789 67.04808641 79.64959756 64.70570831 79.61930466 62.36329079 C79.57671269 59.17123906 79.52196935 55.97963491 79.46337891 52.7878418 C79.45301731 51.87932905 79.44265572 50.97081631 79.43198013 50.03477287 C79.21747327 40.13319072 78.65726792 30.80284137 71.3125 23.625 C64.75356136 18.95806289 57.87353612 18.62944748 50.0625 19.3125 C42.9098651 20.57947237 38.00681282 24.0780872 33.0625 29.3125 C31.49385406 32.44979187 31.91231349 35.80139864 31.91101074 39.24621582 C31.90677833 40.07547467 31.90254592 40.90473351 31.89818525 41.75912142 C31.88511006 44.55360873 31.87912326 47.34806747 31.87304688 50.14257812 C31.86510841 52.13960445 31.85672078 54.13662904 31.84791565 56.13365173 C31.8298302 60.44163002 31.81482483 64.74960439 31.80213928 69.05760193 C31.78196253 75.86333685 31.7543046 82.66902848 31.72546387 89.47473145 C31.66530956 103.92063407 31.61349062 118.36656256 31.5625 132.8125 C31.50745991 148.40567637 31.45103061 163.99883966 31.38495111 179.59197378 C31.3565408 186.36367829 31.33296682 193.1353776 31.31302643 199.90711212 C31.29967211 204.11254888 31.28225796 208.31796159 31.26371574 212.52337837 C31.25593719 214.48017839 31.24987752 216.43698607 31.24562263 218.39379692 C31.23960696 221.05550066 31.22757404 223.71710994 31.21398926 226.37878418 C31.21369327 227.16145676 31.21339728 227.94412934 31.21309233 228.75051928 C31.17659279 234.08431442 31.17659279 234.08431442 30.0625 236.3125 C28.39638095 236.355221 26.72867115 236.35313832 25.0625 236.3125 C23.25834123 234.50834123 23.93565431 232.03877263 23.92589396 229.63651782 C23.92764433 228.8147514 23.92939471 227.99298497 23.93119812 227.14631653 C23.92802455 225.84669 23.92802455 225.84669 23.92478687 224.5208084 C23.91875723 221.59434487 23.91978912 218.6679241 23.9206543 215.74145508 C23.91762472 213.65254645 23.91410383 211.56363848 23.91012573 209.47473145 C23.90222016 204.96429686 23.89708557 200.45387024 23.89383507 195.94342995 C23.8879392 188.81322924 23.87141198 181.68307884 23.85249329 174.55290222 C23.84615538 172.11454871 23.83982977 169.67619518 23.83351612 167.23784161 C23.83035031 166.01644619 23.8271845 164.79505078 23.82392275 163.53664339 C23.78180378 146.92897893 23.74887207 130.32133733 23.73657227 113.71362305 C23.72819867 102.52248014 23.70573182 91.33146105 23.6672166 80.14038008 C23.64742825 74.21455225 23.63506051 68.28890964 23.64005089 62.36304665 C23.64468888 56.7873439 23.6309381 51.21199214 23.60303879 45.63636017 C23.59611209 43.58933095 23.59601627 41.54226555 23.60323906 39.49523735 C23.61210289 36.70093944 23.5964734 33.90780503 23.57475281 31.11360168 C23.58319534 30.30298887 23.59163788 29.49237605 23.60033625 28.6571992 C23.50437636 21.98314938 21.11189816 18.41069336 16.4375 13.625 C5.5054961 5.04545264 -12.11154191 6.54585379 -20.9375 17.3125 Z " fill="#000000" transform="translate(217.9375,51.6875)"/>
<path d="" fill="#000000" transform="translate(0,0)"/>
<path d="" fill="#000000" transform="translate(0,0)"/>
<path d="" fill="#000000" transform="translate(0,0)"/>
<path d="" fill="#000000" transform="translate(0,0)"/>
<path d="" fill="#000000" transform="translate(0,0)"/>
<path d="" fill="#000000" transform="translate(0,0)"/>
<path d="" fill="#000000" transform="translate(0,0)"/>
<path d="" fill="#000000" transform="translate(0,0)"/>
<path d="" fill="#000000" transform="translate(0,0)"/>
<path d="" fill="#000000" transform="translate(0,0)"/>
<path d="" fill="#000000" transform="translate(0,0)"/>
<path d="" fill="#000000" transform="translate(0,0)"/>
<path d="" fill="#000000" transform="translate(0,0)"/>
<path d="" fill="#000000" transform="translate(0,0)"/>
<path d="" fill="#000000" transform="translate(0,0)"/>
<path d="" fill="#000000" transform="translate(0,0)"/>
<path d="" fill="#000000" transform="translate(0,0)"/>
<path d="" fill="#000000" transform="translate(0,0)"/>
<path d="" fill="#000000" transform="translate(0,0)"/>
<path d="" fill="#000000" transform="translate(0,0)"/>
<path d="" fill="#000000" transform="translate(0,0)"/>
<path d="" fill="#000000" transform="translate(0,0)"/>
<path d="" fill="#000000" transform="translate(0,0)"/>
</svg>
