<?xml version="1.0" encoding="UTF-8"?>
<svg version="1.1" xmlns="http://www.w3.org/2000/svg" width="495" height="504">
<path d="M0 0 C5.8658108 3.94718103 9.66374613 8.8247224 13 15 C13.72703125 14.52949219 14.4540625 14.05898437 15.203125 13.57421875 C24.37329975 7.89576439 33.55500408 3.73037097 44.55078125 5.359375 C54.72537085 8.02067116 61.58376289 14.19628813 67 23 C68.12797454 25.30538222 69.07069167 27.60336273 70 30 C70.74443359 29.60167969 70.74443359 29.60167969 71.50390625 29.1953125 C81.18801985 24.16030847 90.40154363 22.30654879 101.125 25.125 C108.92760896 27.80018022 115.54238398 32.00715023 119.7478466 39.25979328 C124.95135222 50.64712097 123.26218326 65.65435696 123.19873047 77.88208008 C123.19484519 80.06342948 123.19180167 82.24478052 123.18952942 84.4261322 C123.180502 90.31474447 123.15832048 96.20323479 123.13258505 102.09179521 C123.11193433 107.02426157 123.09701753 111.9567395 123.08182538 116.88922518 C123.0455496 128.53468206 122.99774881 140.18005432 122.94335938 151.82543945 C122.88768258 163.801898 122.85421752 175.77822065 122.83125198 187.75479203 C122.81051876 198.07209938 122.77449806 208.38928092 122.7267276 218.70649832 C122.69850271 224.85322495 122.67620358 230.9998253 122.66924667 237.14661598 C122.66214972 242.93103767 122.63586025 248.7150718 122.59541893 254.49935341 C122.58380334 256.60948575 122.57874704 258.71966719 122.58111382 260.82983017 C122.59287269 276.51853023 121.09518766 291.20300642 114.75 305.75 C114.31264526 306.78241821 114.31264526 306.78241821 113.86645508 307.83569336 C110.92509973 314.55601885 107.43378329 321.13925197 103 327 C102.34 327 101.68 327 101 327 C100.62681641 328.11761719 100.62681641 328.11761719 100.24609375 329.2578125 C95.79590923 339.05100854 82.59862154 345.78868781 72.9765625 349.46948242 C64.14445934 352.65497811 55.29124603 354.66582314 46 356 C45.05314331 356.14356934 45.05314331 356.14356934 44.0871582 356.29003906 C36.48758865 357.30582755 28.83839581 357.15123938 21.1875 357.125 C20.43879639 357.12411377 19.69009277 357.12322754 18.91870117 357.12231445 C7.81753195 357.10701872 -3.25389928 356.84371838 -14.34521484 356.3515625 C-20.85035651 356.08319396 -27.33093671 355.97838676 -33.83984375 356.0390625 C-34.59592926 356.04496399 -35.35201477 356.05086548 -36.13101196 356.0569458 C-39.81920052 356.08792535 -43.50584267 356.13618342 -47.19335938 356.21289062 C-75.7985621 356.63331566 -94.1156542 340.28791493 -113.59619141 321.39257812 C-116.59754994 318.41523046 -119.3244741 315.26871409 -122 312 C-122.75410156 311.12214844 -123.50820312 310.24429687 -124.28515625 309.33984375 C-130.65410448 301.86838825 -136.4868046 294.12231187 -142 286 C-142.60279785 285.11997314 -142.60279785 285.11997314 -143.21777344 284.22216797 C-164.29349844 253.11806616 -175.4579894 216.39486854 -186.75108337 180.92875671 C-188.45399544 175.61009822 -190.26015491 170.34757445 -192.26416016 165.13330078 C-195.22328834 156.55438171 -193.56183966 149.37412892 -189.72387695 141.32299805 C-188.25590125 138.56312358 -186.73538316 135.8408227 -185.1875 133.125 C-184.10419277 131.17909522 -183.02214788 129.23248711 -181.94140625 127.28515625 C-181.17207764 125.90674561 -181.17207764 125.90674561 -180.38720703 124.50048828 C-177.74926059 119.7454993 -175.28289594 114.93710629 -173 110 C-172.48953125 108.93007812 -171.9790625 107.86015625 -171.453125 106.7578125 C-167.62632637 98.10015422 -165.79410015 89.68329309 -164.55615234 80.2956543 C-163.14985446 70.4915304 -159.8442726 62.56738542 -151.9609375 56.33984375 C-146.15567665 52.37330098 -139.81840757 52.27463749 -133 53 C-122.137879 55.59746372 -113.36810063 61.82671074 -107 71 C-105.98012084 73.32471309 -104.97822943 75.65745616 -104 78 C-103.98541748 77.03288086 -103.97083496 76.06576172 -103.95581055 75.06933594 C-103.89710148 71.42348303 -103.8198859 67.77820188 -103.73754883 64.1328125 C-103.70463621 62.56585078 -103.67650384 60.99878007 -103.65356445 59.43164062 C-103.2527321 32.75496808 -103.2527321 32.75496808 -94 23 C-86.70675244 17.48559331 -79.43396023 14.60521409 -70.25 14.625 C-69.19872925 14.6252417 -69.19872925 14.6252417 -68.1262207 14.62548828 C-60.7958025 14.78570679 -55.07970302 16.94686465 -49 21 C-48.78085938 20.443125 -48.56171875 19.88625 -48.3359375 19.3125 C-44.0979327 9.11372422 -38.99623935 2.64534441 -28.875 -1.96875 C-19.03479597 -5.76425727 -9.3154682 -4.79202385 0 0 Z M-35 13 C-38.23840422 18.30392486 -40.12136653 23.14175041 -40.14044189 29.39408875 C-40.14615204 30.5141481 -40.15186218 31.63420746 -40.15774536 32.78820801 C-40.15886322 34.01785278 -40.15998108 35.24749756 -40.16113281 36.5144043 C-40.16609772 37.80897049 -40.17106262 39.10353668 -40.17617798 40.43733215 C-40.18929669 43.99129681 -40.1957463 47.54524258 -40.20018864 51.09922767 C-40.20312118 53.32132518 -40.20722641 55.54341755 -40.21169281 57.76551247 C-40.22536847 64.72270423 -40.23503389 71.67988421 -40.2388947 78.63708848 C-40.24337098 86.65877456 -40.26089848 94.68028986 -40.2898953 102.70192403 C-40.3115459 108.90758189 -40.32160084 115.11319184 -40.32293582 121.31888705 C-40.32398175 125.02252539 -40.32984375 128.72600322 -40.34775543 132.42960167 C-40.36737071 136.56604661 -40.36293372 140.70213666 -40.35644531 144.83862305 C-40.3656601 146.05814667 -40.37487488 147.27767029 -40.3843689 148.53414917 C-40.34606389 156.33496792 -39.39971363 161.87249256 -35.4375 168.6875 C-29.87475826 173.96497293 -24.03683157 176.31333475 -16.375 176.5625 C-9.73714418 176.26609751 -5.11052913 174.93656218 -0.25390625 170.3515625 C4.21516243 165.44308899 6.2420863 161.07998878 6.27415466 154.35435486 C6.28412979 153.22891266 6.29410492 152.10347046 6.30438232 150.94392395 C6.30537933 149.10564278 6.30537933 149.10564278 6.30639648 147.23022461 C6.31472 145.93203796 6.32304352 144.63385132 6.33161926 143.29632568 C6.35353021 139.74013563 6.36235938 136.18403156 6.36744571 132.62778163 C6.3710955 130.40127919 6.37733899 128.17479904 6.3844471 125.94830513 C6.40893673 118.16678002 6.42199094 110.38532143 6.42553711 102.60375977 C6.42916464 95.37429879 6.45900462 88.14526437 6.50094169 80.91593355 C6.535766 74.69232752 6.55108769 68.4688619 6.55178314 62.24515921 C6.55257231 58.53572227 6.56114184 54.82671939 6.58978081 51.11738396 C6.62108649 46.96980201 6.61184423 42.82321867 6.59936523 38.67553711 C6.61419952 37.46418594 6.62903381 36.25283478 6.64431763 35.004776 C6.5708875 26.39213071 5.24663562 17.36839497 -1.0076685 10.93476772 C-11.62271453 2.35525903 -25.53281054 3.09247614 -35 13 Z M18.4453125 24.8046875 C14.26158649 31.15942808 14.70957673 37.86683681 14.7253418 45.1965332 C14.72023087 46.42165619 14.71511993 47.64677917 14.70985413 48.9090271 C14.69835735 52.25842469 14.69588124 55.60757433 14.69841743 58.95697427 C14.69949013 61.75988642 14.69459594 64.56277597 14.689812 67.36568326 C14.67872953 73.98330812 14.67827181 80.60087622 14.68432617 87.21850586 C14.69036083 94.02816304 14.6780651 100.83761333 14.6567561 107.64723521 C14.63909523 113.50818355 14.63314593 119.36906631 14.63639385 125.23004025 C14.63820027 128.72406371 14.63563538 132.21793968 14.62167931 135.71193886 C14.60667914 139.61313499 14.61611025 143.51407128 14.62768555 147.4152832 C14.62004181 148.56104324 14.61239807 149.70680328 14.60452271 150.88728333 C14.65611755 158.77473804 15.26915444 165.70898099 20.4375 171.9375 C26.4236361 176.75560954 32.45219528 177.05217377 40 177 C46.90839531 176.02671779 52.51368145 173.41699102 57 168 C65.53953628 155.34690661 62.1152007 134.44672103 62.01953125 119.921875 C62.01257421 118.73361366 62.00561718 117.54535233 61.99844933 116.32108307 C61.9612731 110.04602856 61.91737637 103.77106302 61.86791992 97.49609375 C61.81837453 91.03827025 61.79231356 84.5805714 61.77148914 78.12260056 C61.7510901 73.12949006 61.71320895 68.13661992 61.6706295 63.14365387 C61.65335392 60.76278758 61.6426093 58.38186414 61.63868141 56.00093842 C61.63156951 52.67043592 61.59958301 49.34101882 61.56176758 46.01074219 C61.5652269 45.04010834 61.56868622 44.06947449 61.57225037 43.06942749 C61.43320461 34.74847382 59.31484541 26.77045504 53.5625 20.5 C52.72912109 19.55640625 52.72912109 19.55640625 51.87890625 18.59375 C46.90869051 14.37784975 41.46000106 14.5687373 35.22265625 14.6953125 C27.56971821 15.41886301 23.36480902 19.15298685 18.4453125 24.8046875 Z M-88.33984375 31.01171875 C-94.68236051 38.60781529 -94.15013356 49.37525739 -94.14526367 58.76147461 C-94.14862228 59.7040361 -94.1519809 60.6465976 -94.15544128 61.61772156 C-94.16488786 64.71260927 -94.16689105 67.80744254 -94.16796875 70.90234375 C-94.17118509 73.06653363 -94.17454944 75.23072329 -94.17805481 77.39491272 C-94.18402989 81.92302962 -94.18589632 86.45112748 -94.18530273 90.97924805 C-94.18520106 96.76704087 -94.19886571 102.55471116 -94.21607494 108.34247494 C-94.22721847 112.80958105 -94.22922124 117.27665773 -94.22869301 121.74377632 C-94.22986909 123.87710557 -94.2342699 126.01043567 -94.24202538 128.14375114 C-94.25187527 131.13229741 -94.24892778 134.12057991 -94.24291992 137.10913086 C-94.24853943 137.98057739 -94.25415894 138.85202393 -94.25994873 139.74987793 C-94.21830863 147.94387927 -93.42006065 155.52603867 -88 162 C-81.82354819 167.05346058 -74.89188859 168.69227093 -67 168 C-60.87913699 166.62549041 -56.30011144 164.60726226 -52 160 C-48.87763455 153.40991141 -48.55489266 147.68704158 -48.56420898 140.46264648 C-48.54909523 138.76600861 -48.54909523 138.76600861 -48.53367615 137.03509521 C-48.50528714 133.31365965 -48.49932487 129.5926307 -48.49609375 125.87109375 C-48.4864493 123.27612645 -48.47635657 120.68116079 -48.46583557 118.0861969 C-48.44789893 112.65515664 -48.44218344 107.22427686 -48.4440918 101.79321289 C-48.44589611 95.52741163 -48.41418506 89.26238351 -48.36686081 82.99677795 C-48.32283129 76.95041539 -48.31212934 70.90447155 -48.31392097 64.85792732 C-48.3103829 62.29308976 -48.29712469 59.72824634 -48.27392387 57.16351128 C-48.24451185 53.57767333 -48.25315739 49.99382938 -48.27124023 46.40795898 C-48.25438171 45.35165787 -48.23752319 44.29535675 -48.22015381 43.20704651 C-48.29786781 37.13913504 -49.10561949 33.70724219 -53.40184116 29.31329441 C-63.47144344 21.0385522 -79.24562805 22.27910208 -88.33984375 31.01171875 Z M72.31217384 39.2543354 C69.5708359 42.90130385 70.16276245 47.46536157 70.20776367 51.84545898 C70.19564346 52.93870483 70.18352325 54.03195068 70.17103577 55.1583252 C70.13953521 58.77147024 70.15214657 62.38286786 70.16796875 65.99609375 C70.16138748 68.50806647 70.15317079 71.02003539 70.14338684 73.53199768 C70.13002626 78.7969756 70.13837282 84.06149941 70.1628418 89.32641602 C70.19064019 95.40436383 70.17129414 101.48083804 70.12796611 107.55866188 C70.08782462 113.41555216 70.08700675 119.27187612 70.10222816 125.12886238 C70.10438221 127.61635767 70.09586853 130.10388589 70.07649803 132.59130669 C70.05399152 136.0703206 70.07624028 139.54628581 70.11010742 143.02514648 C70.09436676 144.05235306 70.0786261 145.07955963 70.06240845 146.13789368 C70.11466622 151.41358771 70.11466622 151.41358771 72.52099037 155.94352913 C74.27934313 157.47765397 76.02557902 158.76102309 78 160 C78.9075 160.61875 79.815 161.2375 80.75 161.875 C87.0803534 164.06627618 93.47893807 163.94220813 99.6875 161.375 C104.49806851 158.95671421 109.17928248 155.82071752 113 152 C113.11138069 148.88163099 113.15740774 145.78521037 113.16113281 142.66601562 C113.16609772 141.68546204 113.17106262 140.70490845 113.17617798 139.69464111 C113.19085006 136.43183706 113.19761219 133.16908171 113.203125 129.90625 C113.20887509 127.64237466 113.21463284 125.37849933 113.22039795 123.11462402 C113.23092418 118.35636162 113.2367553 113.59811617 113.24023438 108.83984375 C113.24570332 102.75473581 113.26969027 96.66985342 113.29820633 90.58481598 C113.31687653 85.90237791 113.32204079 81.2199935 113.32357025 76.53752136 C113.3265906 74.29533158 113.33459818 72.0531426 113.34775543 69.81098938 C113.36489689 66.66353534 113.36291506 63.51662299 113.35644531 60.36914062 C113.3656601 59.44929382 113.37487488 58.52944702 113.3843689 57.58172607 C113.34413531 51.30252121 112.79732582 44.49302699 108.72502518 39.4079361 C102.94218753 34.13315257 96.23251356 33.64255455 88.77734375 33.81640625 C82.44008421 34.23532495 77.29644006 34.97804013 72.31217384 39.2543354 Z M-150.1875 67 C-154.12477454 73.5168682 -155.00354123 81.01902418 -156.1875 88.4375 C-159.41581987 107.01426404 -169.20450055 123.80453181 -178.17285156 140.13574219 C-179.19326497 141.99930547 -180.19194179 143.87308074 -181.1875 145.75 C-181.73792969 146.75546875 -182.28835937 147.7609375 -182.85546875 148.796875 C-185.50568274 156.21385615 -183.88014399 162.57179924 -181.125 169.6875 C-180.47891695 171.43905412 -179.83588813 173.19173673 -179.1953125 174.9453125 C-178.8437207 175.90211914 -178.49212891 176.85892578 -178.12988281 177.84472656 C-176.20137234 183.23022122 -174.43228336 188.66887487 -172.64569092 194.10266113 C-161.98104357 226.47262297 -150.20779859 259.18195185 -130 287 C-129.53029785 287.64727051 -129.0605957 288.29454102 -128.57666016 288.96142578 C-126.99798992 291.12720887 -125.40831218 293.28431981 -123.8125 295.4375 C-123.31298828 296.11280762 -122.81347656 296.78811523 -122.29882812 297.48388672 C-119.43487669 301.29073028 -116.43273773 304.67894381 -113 308 C-112.236875 308.94875 -111.47375 309.8975 -110.6875 310.875 C-108.21942999 313.88059446 -105.44462168 316.31608935 -102.48046875 318.82421875 C-100.55139894 320.51633196 -98.70285197 322.2339198 -96.86328125 324.01953125 C-82.17825933 338.20835268 -68.42035936 347.29111772 -47.3828125 347.0625 C-46.1596785 347.05682007 -46.1596785 347.05682007 -44.91183472 347.05102539 C-41.46133889 347.03490292 -38.01096726 347.00708504 -34.56054688 346.97949219 C-25.11015024 346.9105906 -15.7354538 346.99174885 -6.3044281 347.6239624 C40.5050896 350.90899884 40.5050896 350.90899884 82.7734375 333.95703125 C83.50820313 333.31121094 84.24296875 332.66539062 85 332 C86.25683594 330.92298828 86.25683594 330.92298828 87.5390625 329.82421875 C103.07940519 315.48109279 111.10072872 293.82176273 112.20977783 273.07589722 C112.34520182 268.82081708 112.38138034 264.56547869 112.4140625 260.30859375 C112.4328888 258.71329376 112.45246936 257.11800253 112.4727478 255.52272034 C112.52368938 251.33675824 112.56338503 247.15076158 112.60089111 242.96466064 C112.63246121 239.65539515 112.67224514 236.34625451 112.71246719 233.03708458 C112.99127384 210.02451413 113.04943069 187.01404396 113 164 C112.16855469 164.42152344 111.33710938 164.84304687 110.48046875 165.27734375 C108.85044922 166.09912109 108.85044922 166.09912109 107.1875 166.9375 C106.10855469 167.48277344 105.02960938 168.02804688 103.91796875 168.58984375 C96.65729627 172.09868279 86.91925137 172.40836097 79.12109375 170.17578125 C77.0061974 169.21316345 75.01126206 168.16068427 73 167 C71.33805262 166.32165413 69.67401097 165.64800425 68 165 C67.2575 166.7634375 67.2575 166.7634375 66.5 168.5625 C62.46113435 176.569374 55.35381318 181.21039632 47 184 C37.46879016 186.3027403 26.65171288 185.86914027 18.0625 180.875 C17.051875 180.25625 16.04125 179.6375 15 179 C14.34 179 13.68 179 13 179 C12.71125 178.38125 12.4225 177.7625 12.125 177.125 C11.06279958 174.86674235 11.06279958 174.86674235 9 173 C8.46246094 173.75796875 7.92492187 174.5159375 7.37109375 175.296875 C4.77338971 178.2583432 2.59602324 179.55676062 -0.9375 181.25 C-1.95714844 181.75015625 -2.97679687 182.2503125 -4.02734375 182.765625 C-12.10650086 186.12043925 -20.30452159 185.77644077 -28.515625 183.03515625 C-36.33492012 179.77711662 -41.43077983 175.05989313 -46 168 C-46.95261719 168.49371094 -47.90523437 168.98742187 -48.88671875 169.49609375 C-50.15348171 170.14355037 -51.42041801 170.79066794 -52.6875 171.4375 C-53.31333984 171.76298828 -53.93917969 172.08847656 -54.58398438 172.42382812 C-63.93159958 177.17104632 -73.50471517 177.17189364 -83.41796875 174.046875 C-87.03958996 172.5785021 -90.50460198 170.74769901 -94 169 C-94 175.6 -94 182.2 -94 189 C-89.17999356 190.3771447 -84.763142 191.45206032 -79.875 192.3125 C-58.14265117 196.45753875 -40.93308698 209.19796184 -26 225 C-25.154375 225.845625 -24.30875 226.69125 -23.4375 227.5625 C-22.633125 228.366875 -21.82875 229.17125 -21 230 C-20.32582031 230.60457031 -19.65164062 231.20914063 -18.95703125 231.83203125 C-12.58548086 237.72994426 -12.58548086 237.72994426 -11.9375 241.9375 C-12 245 -12 245 -13 246 C-15.3125 246.32421875 -15.3125 246.32421875 -18 246 C-20 244.26953125 -20 244.26953125 -22 241.8125 C-22.77988281 240.89984375 -23.55976563 239.9871875 -24.36328125 239.046875 C-24.9967749 238.3053418 -24.9967749 238.3053418 -25.64306641 237.54882812 C-43.68222736 216.95860914 -63.37901996 203.92184041 -90.36328125 198.7578125 C-91.46196533 198.54721191 -92.56064941 198.33661133 -93.69262695 198.11962891 C-95.84045353 197.71723842 -97.99130575 197.33056313 -100.14526367 196.96240234 C-107.43479799 195.62979989 -115.60600295 193.84607726 -120.70825195 188.06420898 C-128.10682113 177.3152388 -127.02524908 163.4931456 -124.76953125 151.23046875 C-124.63878204 150.50603577 -124.50803284 149.78160278 -124.37332153 149.03521729 C-122.69986389 140.0328801 -120.53393274 131.14563456 -118.375 122.25 C-117.7622913 119.7054227 -117.15101735 117.16050598 -116.54043579 114.61541748 C-116.16468804 113.05128262 -115.78747857 111.48749791 -115.40853882 109.9241333 C-112.65336547 98.51823986 -109.889072 84.72268235 -116.32421875 74.08203125 C-122.28467037 66.67662167 -129.82422649 62.72656159 -139.1875 61.625 C-143.74879978 62.2331733 -146.80886086 63.9109585 -150.1875 67 Z M-104 94 C-104.16363037 95.01545898 -104.32726074 96.03091797 -104.49584961 97.07714844 C-106.30335785 107.96374981 -108.7753758 118.5771603 -111.5625 129.25 C-118.69753926 154.44995952 -118.69753926 154.44995952 -116 180 C-112.2008284 185.25179604 -109.57518411 185.53430596 -103 188 C-103 156.98 -103 125.96 -103 94 C-103.33 94 -103.66 94 -104 94 Z " fill="#010101" transform="translate(263,77)"/>
<path d="" fill="#000000" transform="translate(0,0)"/>
<path d="" fill="#000000" transform="translate(0,0)"/>
<path d="" fill="#000000" transform="translate(0,0)"/>
<path d="" fill="#000000" transform="translate(0,0)"/>
<path d="" fill="#000000" transform="translate(0,0)"/>
<path d="" fill="#000000" transform="translate(0,0)"/>
<path d="" fill="#000000" transform="translate(0,0)"/>
<path d="" fill="#000000" transform="translate(0,0)"/>
<path d="" fill="#000000" transform="translate(0,0)"/>
<path d="" fill="#000000" transform="translate(0,0)"/>
<path d="" fill="#000000" transform="translate(0,0)"/>
<path d="" fill="#000000" transform="translate(0,0)"/>
</svg>
