<?xml version="1.0" encoding="UTF-8"?>
<svg version="1.1" xmlns="http://www.w3.org/2000/svg" width="443" height="563">
<path d="M0 0 C6.25239616 3.68630857 9.63992156 8.54115237 11.625 15.4375 C12.90730575 28.48026062 10.43966857 41.78998077 8.75 54.6875 C8.44330237 57.08284628 8.13724924 59.47827515 7.83178711 61.8737793 C4.71128596 86.21770974 1.44328568 110.5435799 -1.83920002 134.86612797 C-2.26992929 138.0586947 -2.69932931 141.25143961 -3.12864494 144.4441967 C-3.42735243 146.66071828 -3.72824051 148.87693681 -4.02919006 151.09315491 C-4.20894407 152.42903153 -4.38859214 153.76492241 -4.56811523 155.10083008 C-4.72465073 156.25762772 -4.88118622 157.41442535 -5.04246521 158.60627747 C-5.43332543 161.45897246 -5.43332543 161.45897246 -5.375 164.4375 C-4.73433594 164.2209375 -4.09367188 164.004375 -3.43359375 163.78125 C6.78348594 160.49229439 14.71883487 161.0595384 24.625 165.4375 C33.80914731 171.68714035 37.99990001 178.93710003 40.625 189.4375 C41.57246094 189.004375 41.57246094 189.004375 42.5390625 188.5625 C51.48983583 184.84805804 61.24361161 183.31340393 70.5 187 C78.01642205 190.98916254 83.79793308 196.29171397 86.625 204.4375 C87.68053827 208.66350013 87.77373651 212.77160197 87.7421875 217.1015625 C87.73911591 217.84362946 87.73604431 218.58569641 87.73287964 219.35025024 C87.66353213 227.85038446 87.2326493 236.32742236 86.75 244.8125 C86.68330612 246.0254071 86.68330612 246.0254071 86.61526489 247.26281738 C86.04807094 257.53647124 85.33140904 267.75369877 84.11006165 277.97325134 C83.64296025 282.09781012 83.31881821 286.22418021 83.07958984 290.36791992 C83.03727423 291.09889232 82.99495861 291.82986471 82.9513607 292.58298779 C82.55683215 299.89233056 82.45999393 307.19464483 82.42576981 314.51329994 C82.41363057 316.88517669 82.39410849 319.2568979 82.37265015 321.62870789 C82.31215367 328.35878116 82.25722734 335.08882511 82.22363281 341.8190918 C81.86773241 409.35651043 81.86773241 409.35651043 60.8359375 431.26171875 C59.74152344 432.33873047 59.74152344 432.33873047 58.625 433.4375 C58.06039062 434.00082031 57.49578125 434.56414062 56.9140625 435.14453125 C41.90895525 449.015106 23.90422177 451.07299727 4.46875 450.93359375 C2.66906679 450.93374932 0.86938326 450.93524781 -0.93029785 450.93800354 C-4.67520225 450.93937644 -8.41971851 450.92701782 -12.16455078 450.90405273 C-16.91800703 450.87567177 -21.67082019 450.87842064 -26.42432404 450.89114285 C-30.1325613 450.89816243 -33.840655 450.89023988 -37.5488739 450.87788582 C-39.29961086 450.87343201 -41.05036357 450.87298007 -42.80110168 450.87695122 C-69.23718009 450.90886501 -92.24030692 444.34828643 -112 426 C-112.78375 425.154375 -113.5675 424.30875 -114.375 423.4375 C-114.95507812 422.86257813 -115.53515625 422.28765625 -116.1328125 421.6953125 C-143.83223098 392.90964231 -159.23244362 332.53287668 -158.578125 293.3828125 C-157.84867846 282.80583773 -154.50766791 274.97772346 -148.60205078 266.26074219 C-146.77308127 263.54312493 -145.01049643 260.78362015 -143.23901367 258.02832031 C-141.82703827 255.83508247 -140.4068506 253.64737654 -138.984375 251.4609375 C-136.32568428 247.36931607 -133.70665147 243.25341869 -131.10546875 239.125 C-129.375 236.4375 -129.375 236.4375 -127.78295898 234.50292969 C-124.42117374 230.18569012 -124.42117374 230.18569012 -123.24829102 224.96679688 C-123.67488919 222.13746693 -124.32030034 219.45105796 -125.0625 216.6875 C-125.58459394 214.45272229 -126.10257105 212.21698019 -126.6171875 209.98046875 C-126.90561523 208.77052246 -127.19404297 207.56057617 -127.49121094 206.31396484 C-128.92643951 200.01878274 -130.08436639 193.67494261 -131.2567749 187.32647705 C-131.99975192 183.31343259 -132.75872217 179.30340551 -133.515625 175.29296875 C-133.67002045 174.47304443 -133.82441589 173.65312012 -133.98348999 172.80834961 C-135.0164521 167.32492163 -136.05938813 161.84347295 -137.109375 156.36328125 C-141.55942229 133.1268222 -145.92655607 109.87508567 -150.27216721 86.61890411 C-150.74704804 84.07829299 -151.22235936 81.53776275 -151.69778442 78.99725342 C-152.45629014 74.94355431 -153.21351564 70.88961798 -153.96979332 66.83550262 C-154.25092145 65.32937248 -154.53242423 63.82331221 -154.81434059 62.31732941 C-161.99404228 23.95293571 -161.99404228 23.95293571 -157.6875 14.625 C-152.72539672 7.78534413 -147.47676489 6.01220923 -139.375 4.4375 C-133.59494105 3.68180325 -128.41685198 4.54109155 -123.375 7.4375 C-117.90572256 12.38752341 -115.02016618 17.578434 -112.9375 24.5625 C-112.65293945 25.46589111 -112.36837891 26.36928223 -112.07519531 27.30004883 C-108.30356882 39.52302621 -105.13737876 51.92369151 -101.92919922 64.30352783 C-101.0004554 67.87970295 -100.0626381 71.45349219 -99.125 75.02734375 C-97.85194403 79.88120313 -96.57947523 84.73521139 -95.31030273 89.59008789 C-90.12545261 109.42020372 -84.90506892 129.24097412 -79.6875 149.0625 C-79.22326555 150.82619194 -78.75903215 152.58988416 -78.2947998 154.35357666 C-75.65521567 164.38164303 -73.01528114 174.40961712 -70.375 184.4375 C-66.80682131 168.8362711 -63.67100311 153.15347672 -60.55166626 137.45775604 C-59.82970895 133.82779178 -59.105176 130.19834174 -58.38085938 126.56884766 C-56.07622846 115.0174816 -53.77749673 103.46494515 -51.48193359 91.91177368 C-50.61409803 87.54512134 -49.74511802 83.17869808 -48.875 78.8125 C-48.71572021 78.01305969 -48.55644043 77.21361938 -48.39233398 76.38995361 C-46.3677008 66.24141439 -44.28029291 56.10959801 -42.02758789 46.00878906 C-41.05956769 41.65953271 -40.14604545 37.30916885 -39.32421875 32.9296875 C-39.1530957 32.02702148 -38.98197266 31.12435547 -38.80566406 30.19433594 C-38.49186469 28.51970363 -38.18683811 26.84338594 -37.89355469 25.16503906 C-36.2666573 16.50431196 -33.28055266 7.84331292 -25.78125 2.63671875 C-17.31677337 -1.76617434 -9.12103096 -3.97094314 0 0 Z M-23.375 11.4375 C-26.95716519 16.89179125 -28.58322192 22.04029321 -30.01953125 28.37109375 C-30.26580765 29.42751572 -30.51208405 30.48393768 -30.76582336 31.57237244 C-35.04764103 50.35092161 -38.66157578 69.28355954 -42.40350723 88.17498779 C-43.51269098 93.77148244 -44.62619939 99.36711698 -45.73901367 104.96289062 C-47.27853799 112.70705271 -48.81572976 120.45167213 -50.35039616 128.19679832 C-52.46504415 138.86793162 -54.5947609 149.53588717 -56.74052238 160.20080376 C-57.65879641 164.77068682 -58.57051582 169.34187967 -59.48233032 173.91305542 C-59.9493815 176.24738155 -60.41921399 178.58115306 -60.89193726 180.91433716 C-61.52570643 184.04554359 -62.14907772 187.17863262 -62.76953125 190.3125 C-63.04290817 191.64256325 -63.04290817 191.64256325 -63.32180786 192.99949646 C-63.47833832 193.8014595 -63.63486877 194.60342255 -63.79614258 195.4296875 C-63.93345291 196.11401855 -64.07076324 196.79834961 -64.2122345 197.50341797 C-64.3966603 199.69488136 -64.0159319 201.34618586 -63.375 203.4375 C-61.90740234 202.93089844 -61.90740234 202.93089844 -60.41015625 202.4140625 C-34.95788314 193.71106913 -34.95788314 193.71106913 -24.375 198.375 C-23.0322721 199.04396622 -21.69683893 199.72815109 -20.375 200.4375 C-19.715 200.7675 -19.055 201.0975 -18.375 201.4375 C-18.23513672 200.21200439 -18.09527344 198.98650879 -17.95117188 197.72387695 C-15.00133276 171.95602618 -11.8874414 146.21417364 -8.5 120.5 C-8.33483887 119.24435242 -8.16967773 117.98870483 -7.99951172 116.69500732 C-6.25005685 103.41141009 -4.47481392 90.13153657 -2.66061401 76.85664368 C-2.00011621 72.02351589 -1.3442763 67.18975837 -0.68915749 62.35589886 C-0.07244867 57.81099252 0.55622738 53.2678319 1.18701172 48.72485352 C1.51051111 46.34657401 1.83361169 43.96824022 2.15625 41.58984375 C2.3058316 40.53312469 2.45541321 39.47640564 2.60952759 38.38766479 C4.92969883 24.30693498 4.92969883 24.30693498 0.625 11.4375 C-3.14183745 7.76724813 -6.27932172 7.12693042 -11.375 6.9375 C-16.49371131 7.1338862 -19.59414991 7.75117116 -23.375 11.4375 Z M-148.375 15.4375 C-152.8538327 21.19741788 -152.03975494 27.51269621 -151.375 34.4375 C-150.80281313 38.23485733 -150.07926957 41.99925118 -149.3515625 45.76953125 C-149.13347931 46.92295517 -148.91539612 48.07637909 -148.69070435 49.26475525 C-148.19709349 51.87334316 -147.70158624 54.4815042 -147.20349121 57.0892334 C-146.31028144 61.7699018 -145.42866159 66.45272694 -144.54785156 71.13574219 C-142.63977664 81.2758082 -140.72429884 91.41446673 -138.80725861 101.55284119 C-138.24436541 104.52979952 -137.68158462 107.50677909 -137.11883545 110.48376465 C-135.60477268 118.49313133 -134.09058978 126.50247525 -132.57571411 134.51168823 C-130.76114417 144.10544154 -128.94741175 153.69935055 -127.13678551 163.29384899 C-125.98865936 169.37761116 -124.83897602 175.46107775 -123.6885376 181.54440308 C-123.23560851 183.94088016 -122.78324084 186.33746343 -122.33148193 188.73416138 C-120.14493648 200.3321294 -117.94816698 211.91806011 -115.375 223.4375 C-101.33432639 218.20956461 -87.35328106 212.82976273 -73.375 207.4375 C-85.9263851 158.44804497 -98.52599325 109.46133006 -111.66259766 60.625 C-113.16244666 55.04053881 -114.63185046 49.45235434 -116.0234375 43.83984375 C-116.28471436 42.79787842 -116.54599121 41.75591309 -116.81518555 40.68237305 C-117.29019784 38.77875467 -117.75624632 36.87285989 -118.21020508 34.96411133 C-120.03404057 27.69016129 -122.60284812 20.50934397 -127.6875 14.875 C-134.36696386 11.30226352 -141.75343408 11.88561207 -148.375 15.4375 Z M-5.625 175.8125 C-8.76680637 180.52520955 -9.67201471 184.6135466 -10.12109375 190.234375 C-10.17678528 190.91625885 -10.23247681 191.5981427 -10.28985596 192.3006897 C-10.47342361 194.59566786 -10.6436334 196.891396 -10.8125 199.1875 C-10.87370026 199.9855304 -10.93490051 200.78356079 -10.99795532 201.60577393 C-12.27668193 218.32556929 -13.18097147 235.0678397 -14.0625 251.8125 C-14.12911835 253.07477417 -14.19573669 254.33704834 -14.26437378 255.63757324 C-14.45422567 259.26603739 -14.64021324 262.89467255 -14.82421875 266.5234375 C-14.88031311 267.60847565 -14.93640747 268.69351379 -14.99420166 269.81143188 C-16.04313711 282.05172098 -16.04313711 282.05172098 -12.375 293.4375 C-7.87685882 298.22772827 -3.44878627 301.91381447 3.23828125 302.7734375 C9.5256948 302.86442757 14.55082186 302.39558907 19.625 298.4375 C24.68842266 292.88162477 25.80887289 287.6547301 26.4921875 280.28515625 C26.57158066 279.45387207 26.65097382 278.62258789 26.73277283 277.76611328 C26.99351357 275.01118374 27.24756808 272.25570277 27.5 269.5 C27.58704193 268.55631561 27.67408386 267.61263123 27.76376343 266.64035034 C29.05579399 252.55714319 30.22818362 238.46578702 31.23321533 224.35910034 C31.36810031 222.47129494 31.50586076 220.58369253 31.64666748 218.69631958 C33.6006555 197.08769814 33.6006555 197.08769814 26.5 177.125 C21.06669457 172.04604058 15.86101322 170.21183723 8.4375 170 C2.37782386 170.23099147 -1.37825638 171.32982618 -5.625 175.8125 Z M42.3984375 197.984375 C39.76779184 201.62324168 39.77697671 205.03683134 39.5 209.4375 C39.4285376 210.34089111 39.3570752 211.24428223 39.28344727 212.17504883 C39.04471867 215.26141295 38.83427257 218.34900482 38.625 221.4375 C38.45022533 223.8581458 38.27440757 226.27871648 38.09765625 228.69921875 C37.83226728 232.35441379 37.57034258 236.00963606 37.32177734 239.66601562 C36.97875245 244.70667624 36.61636353 249.73618258 36.09375 254.76171875 C34.20102833 268.0566868 34.20102833 268.0566868 38.3125 280.1875 C39.92058558 281.95813566 39.92058558 281.95813566 41.625 283.4375 C42.511875 284.241875 43.39875 285.04625 44.3125 285.875 C49.58882611 289.44008521 55.49225259 288.85962417 61.625 288.4375 C66.71191702 287.42197993 69.96955954 284.47993032 73.36328125 280.7421875 C81.4185016 266.0283175 78.85467969 242.70484827 79.03240967 226.28869629 C79.05232896 224.649496 79.08041018 223.01037278 79.11700439 221.37145996 C79.58884544 209.97477099 79.58884544 209.97477099 75.05126953 199.81469727 C69.86632718 194.80814817 63.99327112 193.11269444 56.9140625 193.21875 C51.7083566 193.7162236 46.71568396 194.98502483 42.3984375 197.984375 Z M-48.61328125 206.046875 C-49.39965469 206.31331818 -50.18602814 206.57976135 -50.99623108 206.85427856 C-59.52398322 209.77699693 -67.92505453 213.01242743 -76.3125 216.3125 C-77.09127502 216.61775604 -77.87005005 216.92301208 -78.67242432 217.23751831 C-83.24757879 219.0311209 -87.81870119 220.83461883 -92.38604736 222.64801025 C-94.17970404 223.35997972 -95.97431595 224.06954156 -97.76904297 224.77880859 C-100.43548494 225.83822537 -103.09453696 226.91341426 -105.75 228 C-106.82495728 228.42804932 -106.82495728 228.42804932 -107.92163086 228.86474609 C-114.54658202 231.63516534 -119.0547347 235.28182514 -122.75 241.5 C-125.15969024 245.44936103 -127.61021003 249.34490066 -130.1875 253.1875 C-130.84878906 254.17621094 -131.51007813 255.16492188 -132.19140625 256.18359375 C-133.34007898 257.89530106 -134.48899687 259.6068454 -135.64013672 261.31689453 C-136.97033692 263.29331805 -138.29767683 265.27164357 -139.625 267.25 C-140.0372583 267.86004883 -140.4495166 268.47009766 -140.87426758 269.09863281 C-151.46836296 284.90276294 -151.44685897 297.85516167 -148.00878906 316.2421875 C-143.66581059 338.13775848 -138.08516304 359.46931045 -130.375 380.4375 C-130.0670752 381.28634766 -129.75915039 382.13519531 -129.44189453 383.00976562 C-120.76241512 406.61330248 -106.02904035 425.09326874 -82.87841797 435.82495117 C-67.64587211 442.4583695 -50.98035765 442.59712354 -34.62890625 442.60546875 C-33.12637807 442.60869192 -31.62385019 442.61205673 -30.12132263 442.61555481 C-26.98899611 442.62150319 -23.856697 442.62339905 -20.72436523 442.62280273 C-16.74286711 442.6227011 -12.76154722 442.63637431 -8.78009129 442.65357494 C-5.68197344 442.66477781 -2.58389766 442.66671945 0.51423836 442.66619301 C1.98081135 442.66735986 3.44738591 442.67170729 4.91393852 442.67952538 C23.90644716 442.77134369 38.78282386 439.90267892 53.3125 427.0625 C54.075625 426.19625 54.83875 425.33 55.625 424.4375 C56.45451172 423.52097656 56.45451172 423.52097656 57.30078125 422.5859375 C77.55653838 398.73012076 74.06743062 359.70921063 73.83099365 330.41729736 C73.79972428 326.11873947 73.78648175 321.82012437 73.77148438 317.52148438 C73.73977476 309.16000508 73.68891002 300.79879508 73.625 292.4375 C73.01270035 292.64731003 72.4004007 292.85712006 71.76954651 293.07328796 C70.96331345 293.34647354 70.15708038 293.61965912 69.32641602 293.90112305 C68.52849136 294.17280807 67.73056671 294.4444931 66.90846252 294.72441101 C59.85155334 296.92817139 51.4876874 297.51814525 44.625 294.4375 C42.17154861 292.97890531 39.83214005 291.43352836 37.5078125 289.77734375 C35.66584241 288.39366477 35.66584241 288.39366477 33.625 287.4375 C33.44066406 288.13875 33.25632812 288.84 33.06640625 289.5625 C30.69561325 297.31762734 27.46986067 302.0096982 20.625 306.4375 C11.89298374 310.7606441 4.46872887 311.55321803 -4.81640625 308.54296875 C-12.1153547 305.38937728 -17.2656114 300.11525647 -21.375 293.4375 C-22.32257616 290.59477153 -22.50369841 288.83329116 -22.5078125 285.88671875 C-22.50974609 284.97027588 -22.51167969 284.05383301 -22.51367188 283.10961914 C-22.50916016 282.12469482 -22.50464844 281.13977051 -22.5 280.125 C-22.49806641 279.11493896 -22.49613281 278.10487793 -22.49414062 277.06420898 C-22.43523529 266.50788265 -21.95970618 255.97620682 -21.375 245.4375 C-21.88506592 245.82784424 -22.39513184 246.21818848 -22.9206543 246.62036133 C-36.77758374 257.13480201 -52.40060325 265.4835734 -67.6015625 273.890625 C-68.6445752 274.47046143 -69.68758789 275.05029785 -70.76220703 275.64770508 C-72.80319469 276.78025313 -74.84832757 277.90536998 -76.89794922 279.0222168 C-78.29424561 279.79819214 -78.29424561 279.79819214 -79.71875 280.58984375 C-80.54568359 281.04351318 -81.37261719 281.49718262 -82.22460938 281.96459961 C-84.57518185 283.57461366 -85.92208664 284.99157137 -87.375 287.4375 C-87.30292311 293.03984003 -85.36768438 296.65548515 -82.0625 301 C-81.6180957 301.60368408 -81.17369141 302.20736816 -80.71582031 302.8293457 C-77.08090148 307.68956768 -73.13936913 312.25291565 -69.14404297 316.81665039 C-64.77310004 321.86096238 -60.69101747 327.09793926 -56.6875 332.4375 C-56.07487305 333.23889404 -55.46224609 334.04028809 -54.83105469 334.8659668 C-51.76497696 339.00970374 -49.60570198 342.10572096 -49.375 347.4375 C-51.025 347.7675 -52.675 348.0975 -54.375 348.4375 C-54.7059668 347.99583496 -55.03693359 347.55416992 -55.37792969 347.09912109 C-61.21970107 339.32550446 -67.08646601 331.62588125 -73.5 324.3125 C-77.66541922 319.54060015 -81.60643224 314.65471196 -85.375 309.5625 C-85.8198877 308.96808105 -86.26477539 308.37366211 -86.72314453 307.76123047 C-91.1522418 301.67905522 -95.3651036 295.41405407 -94.84765625 287.65234375 C-93.72946161 282.41253913 -90.98929245 279.24003883 -86.59960938 276.21337891 C-81.65249776 273.0622839 -76.53276439 270.22615975 -71.375 267.4375 C-70.43398437 266.92703125 -69.49296875 266.4165625 -68.5234375 265.890625 C-66.85308912 264.98916715 -65.18250826 264.08813998 -63.51171875 263.1875 C-39.14947513 251.04556089 -39.14947513 251.04556089 -22 231.25 C-20.63444333 222.9201043 -20.3197936 215.00721862 -24.375 207.4375 C-27.54214387 204.34760354 -30.28761299 203.15590758 -34.625 202.8125 C-39.61118636 203.08788851 -43.93125697 204.43914232 -48.61328125 206.046875 Z " fill="#010101" transform="translate(266.375,62.5625)"/>
<path d="" fill="#000000" transform="translate(0,0)"/>
<path d="" fill="#000000" transform="translate(0,0)"/>
<path d="" fill="#000000" transform="translate(0,0)"/>
<path d="" fill="#000000" transform="translate(0,0)"/>
<path d="" fill="#000000" transform="translate(0,0)"/>
<path d="" fill="#000000" transform="translate(0,0)"/>
<path d="" fill="#000000" transform="translate(0,0)"/>
<path d="" fill="#000000" transform="translate(0,0)"/>
<path d="" fill="#000000" transform="translate(0,0)"/>
<path d="" fill="#000000" transform="translate(0,0)"/>
<path d="" fill="#000000" transform="translate(0,0)"/>
<path d="" fill="#000000" transform="translate(0,0)"/>
</svg>
